<svg xmlns="http://www.w3.org/2000/svg" viewBox="0 0 800 600" xmlns:c2pa="http://c2pa.org/manifest"><metadata><c2pa:manifest>AAAWgmp1bWIAAAAeanVtZGMycGEAEQAQgAAAqgA4m3EDYzJwYQAAABZcanVtYgAAAEdqdW1kYzJtYQARABCAAACqADibcQN1cm46YzJwYTo3NDBjOTgxYS05YmNiLTRlMWItYjdlOS0yY2FkMjc0NTcyNTcAAAADl2p1bWIAAAApanVtZGMyYXMAEQAQgAAAqgA4m3EDYzJwYS5hc3NlcnRpb25zAAAAALxqdW1iAAAARGp1bWRjYm9yABEAEIAAAKoAOJtxE2MycGEuaW5ncmVkaWVudC52MwAAAAAYYzJzaLkcPYEHyDDXt5h9geQihu8AAABwY2JvcqNpZGM6Zm9ybWF0bWltYWdlL3N2Zyt4bWxqaW5zdGFuY2VJRHgseG1wOmlpZDo4ZmRlYzBiYi0zNjFhLTRmMTMtODE1OS1jYTVhNDAzZDFkOTdscmVsYXRpb25zaGlwaHBhcmVudE9mAAAB4mp1bWIAAABBanVtZGNib3IAEQAQgAAAqgA4m3ETYzJwYS5hY3Rpb25zLnYyAAAAABhjMnNoUchDV/Py/GRpd5vZA+9Q4wAAAZljYm9yomdhY3Rpb25zgqJmYWN0aW9ua2MycGEub3BlbmVkanBhcmFtZXRlcnOha2luZ3JlZGllbnRzgaJjdXJseC1zZWxmI2p1bWJmPWMycGEuYXNzZXJ0aW9ucy9jMnBhLmluZ3JlZGllbnQudjNkaGFzaFggqAWTqaewDCY+BxqwuXCHim9kRmB3gf6hJC65v618rLGkZmFjdGlvbngdY29tLmFudGhyb3BpYy5jbGF1ZGUucHJvdmlkZWRqcGFyYW1ldGVyc6F4H2NvbS5hbnRocm9waWMub3JpZ2luLWNvbmZpZGVuY2VndW5rbm93bmtkZXNjcmlwdGlvbnhmQ2xhdWRlIHByb3ZpZGVkIHRoaXMgZmlsZSBhdCB0aGUgcmVxdWVzdCBvZiBhIHVzZXIgYW5kIG1heSBoYXZlIGNyZWF0ZWQgb3IgbW9kaWZpZWQgdGhlIGZpbGUgY29udGVudHMubXNvZnR3YXJlQWdlbnShZG5hbWVmQ2xhdWRlcmFsbEFjdGlvbnNJbmNsdWRlZPUAAADIanVtYgAAAEBqdW1kY2JvcgARABCAAACqADibcRNjMnBhLmhhc2guZGF0YQAAAAAYYzJzaIELzNluICbuFuNFLH3fja0AAACAY2JvcqVjYWxnZnNoYTI1NmNwYWRNAAAAAAAAAAAAAAAAAGRoYXNoWCCP4fLZ+rd0EV4CFWEIDY9IWAAZOY0EABwoKSF7pSdnpWRuYW1lbmp1bWJmIG1hbmlmZXN0amV4Y2x1c2lvbnOBomVzdGFydBh9Zmxlbmd0aBkeBAAAAj5qdW1iAAAAJ2p1bWRjMmNsABEAEIAAAKoAOJtxA2MycGEuY2xhaW0udjIAAAACD2Nib3KlY2FsZ2ZzaGEyNTZpc2lnbmF0dXJleE1zZWxmI2p1bWJmPS9jMnBhL3VybjpjMnBhOjc0MGM5ODFhLTliY2ItNGUxYi1iN2U5LTJjYWQyNzQ1NzI1Ny9jMnBhLnNpZ25hdHVyZWppbnN0YW5jZUlEeCx4bXA6aWlkOjBiYWRlOGE1LTk1NjYtNDZhOC1iNzE4LTRlMDE3YTRjNDZjZXJjcmVhdGVkX2Fzc2VydGlvbnODomN1cmx4LXNlbGYjanVtYmY9YzJwYS5hc3NlcnRpb25zL2MycGEuaW5ncmVkaWVudC52M2RoYXNoWCCoBZOpp7AMJj4HGrC5cIeKb2RGYHeB/qEkLrm/rXyssaJjdXJseCpzZWxmI2p1bWJmPWMycGEuYXNzZXJ0aW9ucy9jMnBhLmFjdGlvbnMudjJkaGFzaFggDrCA5zXGxQ/c7tAUwtTwxuP7KWapp3uAm4G1V0JFdrKiY3VybHgpc2VsZiNqdW1iZj1jMnBhLmFzc2VydGlvbnMvYzJwYS5oYXNoLmRhdGFkaGFzaFgg3eRCAEyRSym8tvhFUWHYoLlBbbRDBILHrFxBrlwvzid0Y2xhaW1fZ2VuZXJhdG9yX2luZm+jZG5hbWVvQW50aHJvcGljIEZpbGVzZ3ZlcnNpb25lMS4wLjBrc3BlY1ZlcnNpb25lMi40LjAAABA4anVtYgAAAChqdW1kYzJjcwARABCAAACqADibcQNjMnBhLnNpZ25hdHVyZQAAABAIY2JvctKEWQISogEmGCFZAgowggIGMIIBjaADAgECAhRA5aAK7sI50L64g/oGQgU9Z1UTADAKBggqhkjOPQQDAzBJMRcwFQYDVQQKEw5BbnRocm9waWMsIFBCQzEuMCwGA1UEAxMlQW50aHJvcGljIENvbnRlbnQgQ3JlZGVudGlhbHMgUm9vdCBDQTAeFw0yNjA4MDcxODQzNTZaFw0yODA4MDYxOTQzNTZaMEQxFzAVBgNVBAoTDkFudGhyb3BpYywgUEJDMSkwJwYDVQQDEyBBbnRocm9waWMgQ2xhdWRlIENvbnRlbnQgU2lnbmluZzBZMBMGByqGSM49AgEGCCqGSM49AwEHA0IABJh6CmvLUBgFFNU0vUKlOVtE6djd17L5SuwX0LemFisBM3dkd/3cyjxFA3Qo5S46fX0/ihY0VZ7mfb9KF703t5OjWDBWMA4GA1UdDwEB/wQEAwIHgDAVBgNVHSUEDjAMBgorBgEEAYPoXgIBMAwGA1UdEwEB/wQCMAAwHwYDVR0jBBgwFoAUzlHiBIFOZFsj+OPEz5o+nMHXXMIwCgYIKoZIzj0EAwMDZwAwZAIwMXMdFJ4BetLLVY7ORuE9noqbbAZOZn/aArXyTwFAZfKrPzxF2vPoJNf1+UCdg1XGAjBwX1zd9WGqYkqmL5SFqw1QySjr1zJfpJM9+1rdDwSPLMOPOjKuiXjoU/pUUeG9RwmhY3BhZFkNngAAAAAAAAAAAAAAAAAAAAAAAAAAAAAAAAAAAAAAAAAAAAAAAAAAAAAAAAAAAAAAAAAAAAAAAAAAAAAAAAAAAAAAAAAAAAAAAAAAAAAAAAAAAAAAAAAAAAAAAAAAAAAAAAAAAAAAAAAAAAAAAAAAAAAAAAAAAAAAAAAAAAAAAAAAAAAAAAAAAAAAAAAAAAAAAAAAAAAAAAAAAAAAAAAAAAAAAAAAAAAAAAAAAAAAAAAAAAAAAAAAAAAAAAAAAAAAAAAAAAAAAAAAAAAAAAAAAAAAAAAAAAAAAAAAAAAAAAAAAAAAAAAAAAAAAAAAAAAAAAAAAAAAAAAAAAAAAAAAAAAAAAAAAAAAAAAAAAAAAAAAAAAAAAAAAAAAAAAAAAAAAAAAAAAAAAAAAAAAAAAAAAAAAAAAAAAAAAAAAAAAAAAAAAAAAAAAAAAAAAAAAAAAAAAAAAAAAAAAAAAAAAAAAAAAAAAAAAAAAAAAAAAAAAAAAAAAAAAAAAAAAAAAAAAAAAAAAAAAAAAAAAAAAAAAAAAAAAAAAAAAAAAAAAAAAAAAAAAAAAAAAAAAAAAAAAAAAAAAAAAAAAAAAAAAAAAAAAAAAAAAAAAAAAAAAAAAAAAAAAAAAAAAAAAAAAAAAAAAAAAAAAAAAAAAAAAAAAAAAAAAAAAAAAAAAAAAAAAAAAAAAAAAAAAAAAAAAAAAAAAAAAAAAAAAAAAAAAAAAAAAAAAAAAAAAAAAAAAAAAAAAAAAAAAAAAAAAAAAAAAAAAAAAAAAAAAAAAAAAAAAAAAAAAAAAAAAAAAAAAAAAAAAAAAAAAAAAAAAAAAAAAAAAAAAAAAAAAAAAAAAAAAAAAAAAAAAAAAAAAAAAAAAAAAAAAAAAAAAAAAAAAAAAAAAAAAAAAAAAAAAAAAAAAAAAAAAAAAAAAAAAAAAAAAAAAAAAAAAAAAAAAAAAAAAAAAAAAAAAAAAAAAAAAAAAAAAAAAAAAAAAAAAAAAAAAAAAAAAAAAAAAAAAAAAAAAAAAAAAAAAAAAAAAAAAAAAAAAAAAAAAAAAAAAAAAAAAAAAAAAAAAAAAAAAAAAAAAAAAAAAAAAAAAAAAAAAAAAAAAAAAAAAAAAAAAAAAAAAAAAAAAAAAAAAAAAAAAAAAAAAAAAAAAAAAAAAAAAAAAAAAAAAAAAAAAAAAAAAAAAAAAAAAAAAAAAAAAAAAAAAAAAAAAAAAAAAAAAAAAAAAAAAAAAAAAAAAAAAAAAAAAAAAAAAAAAAAAAAAAAAAAAAAAAAAAAAAAAAAAAAAAAAAAAAAAAAAAAAAAAAAAAAAAAAAAAAAAAAAAAAAAAAAAAAAAAAAAAAAAAAAAAAAAAAAAAAAAAAAAAAAAAAAAAAAAAAAAAAAAAAAAAAAAAAAAAAAAAAAAAAAAAAAAAAAAAAAAAAAAAAAAAAAAAAAAAAAAAAAAAAAAAAAAAAAAAAAAAAAAAAAAAAAAAAAAAAAAAAAAAAAAAAAAAAAAAAAAAAAAAAAAAAAAAAAAAAAAAAAAAAAAAAAAAAAAAAAAAAAAAAAAAAAAAAAAAAAAAAAAAAAAAAAAAAAAAAAAAAAAAAAAAAAAAAAAAAAAAAAAAAAAAAAAAAAAAAAAAAAAAAAAAAAAAAAAAAAAAAAAAAAAAAAAAAAAAAAAAAAAAAAAAAAAAAAAAAAAAAAAAAAAAAAAAAAAAAAAAAAAAAAAAAAAAAAAAAAAAAAAAAAAAAAAAAAAAAAAAAAAAAAAAAAAAAAAAAAAAAAAAAAAAAAAAAAAAAAAAAAAAAAAAAAAAAAAAAAAAAAAAAAAAAAAAAAAAAAAAAAAAAAAAAAAAAAAAAAAAAAAAAAAAAAAAAAAAAAAAAAAAAAAAAAAAAAAAAAAAAAAAAAAAAAAAAAAAAAAAAAAAAAAAAAAAAAAAAAAAAAAAAAAAAAAAAAAAAAAAAAAAAAAAAAAAAAAAAAAAAAAAAAAAAAAAAAAAAAAAAAAAAAAAAAAAAAAAAAAAAAAAAAAAAAAAAAAAAAAAAAAAAAAAAAAAAAAAAAAAAAAAAAAAAAAAAAAAAAAAAAAAAAAAAAAAAAAAAAAAAAAAAAAAAAAAAAAAAAAAAAAAAAAAAAAAAAAAAAAAAAAAAAAAAAAAAAAAAAAAAAAAAAAAAAAAAAAAAAAAAAAAAAAAAAAAAAAAAAAAAAAAAAAAAAAAAAAAAAAAAAAAAAAAAAAAAAAAAAAAAAAAAAAAAAAAAAAAAAAAAAAAAAAAAAAAAAAAAAAAAAAAAAAAAAAAAAAAAAAAAAAAAAAAAAAAAAAAAAAAAAAAAAAAAAAAAAAAAAAAAAAAAAAAAAAAAAAAAAAAAAAAAAAAAAAAAAAAAAAAAAAAAAAAAAAAAAAAAAAAAAAAAAAAAAAAAAAAAAAAAAAAAAAAAAAAAAAAAAAAAAAAAAAAAAAAAAAAAAAAAAAAAAAAAAAAAAAAAAAAAAAAAAAAAAAAAAAAAAAAAAAAAAAAAAAAAAAAAAAAAAAAAAAAAAAAAAAAAAAAAAAAAAAAAAAAAAAAAAAAAAAAAAAAAAAAAAAAAAAAAAAAAAAAAAAAAAAAAAAAAAAAAAAAAAAAAAAAAAAAAAAAAAAAAAAAAAAAAAAAAAAAAAAAAAAAAAAAAAAAAAAAAAAAAAAAAAAAAAAAAAAAAAAAAAAAAAAAAAAAAAAAAAAAAAAAAAAAAAAAAAAAAAAAAAAAAAAAAAAAAAAAAAAAAAAAAAAAAAAAAAAAAAAAAAAAAAAAAAAAAAAAAAAAAAAAAAAAAAAAAAAAAAAAAAAAAAAAAAAAAAAAAAAAAAAAAAAAAAAAAAAAAAAAAAAAAAAAAAAAAAAAAAAAAAAAAAAAAAAAAAAAAAAAAAAAAAAAAAAAAAAAAAAAAAAAAAAAAAAAAAAAAAAAAAAAAAAAAAAAAAAAAAAAAAAAAAAAAAAAAAAAAAAAAAAAAAAAAAAAAAAAAAAAAAAAAAAAAAAAAAAAAAAAAAAAAAAAAAAAAAAAAAAAAAAAAAAAAAAAAAAAAAAAAAAAAAAAAAAAAAAAAAAAAAAAAAAAAAAAAAAAAAAAAAAAAAAAAAAAAAAAAAAAAAAAAAAAAAAAAAAAAAAAAAAAAAAAAAAAAAAAAAAAAAAAAAAAAAAAAAAAAAAAAAAAAAAAAAAAAAAAAAAAAAAAAAAAAAAAAAAAAAAAAAAAAAAAAAAAAAAAAAAAAAAAAAAAAAAAAAAAAAAAAAAAAAAAAAAAAAAAAAAAAAAAAAAAAAAAAAAAAAAAAAAAAAAAAAAAAAAAAAAAAAAAAAAAAAAAAAAAAAAAAAAAAAAAAAAAAAAAAAAAAAAAAAAAAAAAAAAAAAAAAAAAAAAAAAAAAAAAAAAAAAAAAAAAAAAAAAAAAAAAAAAAAAAAAAAAAAAAAAAAAAAAAAAAAAAAAAAAAAAAAAAAAAAAAAAAAAAAAAAAAAAAAAAAAAAAAAAAAAAAAAAAAAAAAAAAAAAAAAAAAAAAAAAAAAAAAAAAAAAAAAAAAAAAAAAAAAAAAAAAAAAAAAAAAAAAAAAAAAAAAAAAAAAAAAAAAAAAAAAAAAAAAAAAAAAAAAAAAAAAAAAAAAAAAAAAAAAAAAAAAAAAAAAAAAAAAAAAAAAAAAAAAAAAAAAAAAAAAAAAAAAAAAAAAAAAAAAAAAAAAAAAAAAAAAAAAAAAAAAAAAAAAAAAAAAAAAAAAAAAAAAAAAAAAAAAAAAAAAAAAAAAAAAAAAAAAAAAAAAAAAAAAAAAAAAAAAAAAAAAAAAAAAAAAAAAAAAAAAAAAAAAAAAAAAAAAAAAAAAAAAAAAAAAAAAAAAAAAAAAAAAAAAAAAAAAAAAAAAAAAAAAAAAAAAAAAAAAAAAAAAAAAAAAAAAAAAAAAAAAAAAAAAAAAAAAAAAAAAAAAAAAAAAAAAAAAAAAAAAAAAAAAAAAAAAAAAAAAAAAAAAAAAAAAAAAAAAAAAAAAAAAAAAAAAAAAAAAAAAAAAAAAAAAAAAAAAAAAAAAAAAAAAAAAAAAAAAAAAAAAAAAAAAAAAAAAAAAAAAAAAAAAAAAAAAAAAAAAAAAAAAAAAAAAAAAAAAAAAAAAAAAAAAAAAAAAAAAAAAAAAAAAAAAAAAAAAAAAAAAAAAAAAAAAAAAAAAAAAAAAAAAAAAAAAAAAAAAAAAAAAAAAAAAAAAAAAAAAAAAAAAAAAAAAAAAAAAAAAAAAAAAAAAAAAAAAAAAAAAAAAAAAAAAAAAAAAAAAAAAAAAAAAAAAAAAAAAAAAAAAAAAAAAAAAAAAAAAAAAAAAAAAAAAAAAAAAAAAAAAAAAAAAAAAAAAAAAAAAAAAAAAAAAAAAAAAAAAAAAAAAAAAAAAAAAAAAAAAAAAAAAAAAAAAAAAAAAAAAAAAAAAAAAAAAAAAAAAAAAAAAAAAAAAAAAAAAAAAAAAAAAAAAAAAAAAAAAAAAAAAAAAAAAAAAAAAAAAAAAAAAAAAAAAAAAAAAAAAAAAAAAAAAAAAAAAAAAAAAAAAAAAAAAAAAAAAAAAAAAAAAAAAAAAAAAAAAAAAAAAAAAAAAAAAAAAAAAAAAAAAAAAAAAAAAAAAAAAAAAAAAAAAAAAAAAAAAAAAAAAAAAAAAAAAAAAAAAAAAAAAAAAAAAAAAAAAAAAAAAAAAPZYQCFem25ATW9FZYx+2hUwnIJZXP97Vet5iExO7JWESgrmMUECsItzsSP4be/KfIV8I6PN5SV+aBR+9m1wOCkZaP0=</c2pa:manifest></metadata><defs><linearGradient id="sky" x1="0" y1="0" x2="0" y2="1"><stop offset="0" stop-color="#e3f3f0"/><stop offset="1" stop-color="#f3f8f6"/></linearGradient></defs><rect width="800" height="600" fill="url(#sky)"/><circle cx="150" cy="100" r="44" fill="#ffd76a"/><rect y="470" width="800" height="130" fill="#c4d6d2"/><rect x="361.5" y="110" width="77.0" height="360" rx="14" fill="#f4faf9" stroke="#0f6b6f" stroke-width="4"/><rect x="345.0" y="470" width="110.00000000000001" height="14" rx="5" fill="#0f6b6f"/><rect x="339.5" y="149.0" width="60.5" height="8" fill="#0f6b6f"/><path d="M317.5 154.0h44.0l-6 30.800000000000004h-32.0z" fill="#0f6b6f"/><path d="M0 0C14.3 -15.7 31.5 -8.6 34.3 0C31.5 8.6 14.3 15.7 0 0Z" fill="#2f7d4a" transform="translate(339.5 154.0) rotate(-170)"/><path d="M0 0C14.3 -15.7 31.5 -8.6 34.3 0C31.5 8.6 14.3 15.7 0 0Z" fill="#4f9d2d" transform="translate(339.5 154.0) rotate(-138)"/><path d="M0 0C14.3 -15.7 31.5 -8.6 34.3 0C31.5 8.6 14.3 15.7 0 0Z" fill="#7bb33a" transform="translate(339.5 154.0) rotate(-106)"/><path d="M0 0C14.3 -15.7 31.5 -8.6 34.3 0C31.5 8.6 14.3 15.7 0 0Z" fill="#a3cf5a" transform="translate(339.5 154.0) rotate(-74)"/><path d="M0 0C14.3 -15.7 31.5 -8.6 34.3 0C31.5 8.6 14.3 15.7 0 0Z" fill="#2f7d4a" transform="translate(339.5 154.0) rotate(-42)"/><path d="M0 0C14.3 -15.7 31.5 -8.6 34.3 0C31.5 8.6 14.3 15.7 0 0Z" fill="#4f9d2d" transform="translate(339.5 154.0) rotate(-10)"/><rect x="400" y="149.0" width="60.5" height="8" fill="#0f6b6f"/><path d="M438.5 154.0h44.0l-6 30.800000000000004h-32.0z" fill="#0f6b6f"/><path d="M0 0C14.3 -15.7 31.5 -8.6 34.3 0C31.5 8.6 14.3 15.7 0 0Z" fill="#2f7d4a" transform="translate(460.5 154.0) rotate(-170)"/><path d="M0 0C14.3 -15.7 31.5 -8.6 34.3 0C31.5 8.6 14.3 15.7 0 0Z" fill="#4f9d2d" transform="translate(460.5 154.0) rotate(-138)"/><path d="M0 0C14.3 -15.7 31.5 -8.6 34.3 0C31.5 8.6 14.3 15.7 0 0Z" fill="#7bb33a" transform="translate(460.5 154.0) rotate(-106)"/><path d="M0 0C14.3 -15.7 31.5 -8.6 34.3 0C31.5 8.6 14.3 15.7 0 0Z" fill="#a3cf5a" transform="translate(460.5 154.0) rotate(-74)"/><path d="M0 0C14.3 -15.7 31.5 -8.6 34.3 0C31.5 8.6 14.3 15.7 0 0Z" fill="#2f7d4a" transform="translate(460.5 154.0) rotate(-42)"/><path d="M0 0C14.3 -15.7 31.5 -8.6 34.3 0C31.5 8.6 14.3 15.7 0 0Z" fill="#4f9d2d" transform="translate(460.5 154.0) rotate(-10)"/><rect x="339.5" y="207.8" width="60.5" height="8" fill="#0f6b6f"/><path d="M317.5 212.8h44.0l-6 30.800000000000004h-32.0z" fill="#0f6b6f"/><path d="M0 0C14.3 -15.7 31.5 -8.6 34.3 0C31.5 8.6 14.3 15.7 0 0Z" fill="#2f7d4a" transform="translate(339.5 212.8) rotate(-170)"/><path d="M0 0C14.3 -15.7 31.5 -8.6 34.3 0C31.5 8.6 14.3 15.7 0 0Z" fill="#4f9d2d" transform="translate(339.5 212.8) rotate(-138)"/><path d="M0 0C14.3 -15.7 31.5 -8.6 34.3 0C31.5 8.6 14.3 15.7 0 0Z" fill="#7bb33a" transform="translate(339.5 212.8) rotate(-106)"/><path d="M0 0C14.3 -15.7 31.5 -8.6 34.3 0C31.5 8.6 14.3 15.7 0 0Z" fill="#a3cf5a" transform="translate(339.5 212.8) rotate(-74)"/><path d="M0 0C14.3 -15.7 31.5 -8.6 34.3 0C31.5 8.6 14.3 15.7 0 0Z" fill="#2f7d4a" transform="translate(339.5 212.8) rotate(-42)"/><path d="M0 0C14.3 -15.7 31.5 -8.6 34.3 0C31.5 8.6 14.3 15.7 0 0Z" fill="#4f9d2d" transform="translate(339.5 212.8) rotate(-10)"/><rect x="400" y="207.8" width="60.5" height="8" fill="#0f6b6f"/><path d="M438.5 212.8h44.0l-6 30.800000000000004h-32.0z" fill="#0f6b6f"/><path d="M0 0C14.3 -15.7 31.5 -8.6 34.3 0C31.5 8.6 14.3 15.7 0 0Z" fill="#2f7d4a" transform="translate(460.5 212.8) rotate(-170)"/><path d="M0 0C14.3 -15.7 31.5 -8.6 34.3 0C31.5 8.6 14.3 15.7 0 0Z" fill="#4f9d2d" transform="translate(460.5 212.8) rotate(-138)"/><path d="M0 0C14.3 -15.7 31.5 -8.6 34.3 0C31.5 8.6 14.3 15.7 0 0Z" fill="#7bb33a" transform="translate(460.5 212.8) rotate(-106)"/><path d="M0 0C14.3 -15.7 31.5 -8.6 34.3 0C31.5 8.6 14.3 15.7 0 0Z" fill="#a3cf5a" transform="translate(460.5 212.8) rotate(-74)"/><path d="M0 0C14.3 -15.7 31.5 -8.6 34.3 0C31.5 8.6 14.3 15.7 0 0Z" fill="#2f7d4a" transform="translate(460.5 212.8) rotate(-42)"/><path d="M0 0C14.3 -15.7 31.5 -8.6 34.3 0C31.5 8.6 14.3 15.7 0 0Z" fill="#4f9d2d" transform="translate(460.5 212.8) rotate(-10)"/><rect x="339.5" y="266.6" width="60.5" height="8" fill="#0f6b6f"/><path d="M317.5 271.6h44.0l-6 30.800000000000004h-32.0z" fill="#0f6b6f"/><path d="M0 0C14.3 -15.7 31.5 -8.6 34.3 0C31.5 8.6 14.3 15.7 0 0Z" fill="#2f7d4a" transform="translate(339.5 271.6) rotate(-170)"/><path d="M0 0C14.3 -15.7 31.5 -8.6 34.3 0C31.5 8.6 14.3 15.7 0 0Z" fill="#4f9d2d" transform="translate(339.5 271.6) rotate(-138)"/><path d="M0 0C14.3 -15.7 31.5 -8.6 34.3 0C31.5 8.6 14.3 15.7 0 0Z" fill="#7bb33a" transform="translate(339.5 271.6) rotate(-106)"/><path d="M0 0C14.3 -15.7 31.5 -8.6 34.3 0C31.5 8.6 14.3 15.7 0 0Z" fill="#a3cf5a" transform="translate(339.5 271.6) rotate(-74)"/><path d="M0 0C14.3 -15.7 31.5 -8.6 34.3 0C31.5 8.6 14.3 15.7 0 0Z" fill="#2f7d4a" transform="translate(339.5 271.6) rotate(-42)"/><path d="M0 0C14.3 -15.7 31.5 -8.6 34.3 0C31.5 8.6 14.3 15.7 0 0Z" fill="#4f9d2d" transform="translate(339.5 271.6) rotate(-10)"/><rect x="400" y="266.6" width="60.5" height="8" fill="#0f6b6f"/><path d="M438.5 271.6h44.0l-6 30.800000000000004h-32.0z" fill="#0f6b6f"/><path d="M0 0C14.3 -15.7 31.5 -8.6 34.3 0C31.5 8.6 14.3 15.7 0 0Z" fill="#2f7d4a" transform="translate(460.5 271.6) rotate(-170)"/><path d="M0 0C14.3 -15.7 31.5 -8.6 34.3 0C31.5 8.6 14.3 15.7 0 0Z" fill="#4f9d2d" transform="translate(460.5 271.6) rotate(-138)"/><path d="M0 0C14.3 -15.7 31.5 -8.6 34.3 0C31.5 8.6 14.3 15.7 0 0Z" fill="#7bb33a" transform="translate(460.5 271.6) rotate(-106)"/><path d="M0 0C14.3 -15.7 31.5 -8.6 34.3 0C31.5 8.6 14.3 15.7 0 0Z" fill="#a3cf5a" transform="translate(460.5 271.6) rotate(-74)"/><path d="M0 0C14.3 -15.7 31.5 -8.6 34.3 0C31.5 8.6 14.3 15.7 0 0Z" fill="#2f7d4a" transform="translate(460.5 271.6) rotate(-42)"/><path d="M0 0C14.3 -15.7 31.5 -8.6 34.3 0C31.5 8.6 14.3 15.7 0 0Z" fill="#4f9d2d" transform="translate(460.5 271.6) rotate(-10)"/><rect x="339.5" y="325.4" width="60.5" height="8" fill="#0f6b6f"/><path d="M317.5 330.4h44.0l-6 30.800000000000004h-32.0z" fill="#0f6b6f"/><path d="M0 0C14.3 -15.7 31.5 -8.6 34.3 0C31.5 8.6 14.3 15.7 0 0Z" fill="#2f7d4a" transform="translate(339.5 330.4) rotate(-170)"/><path d="M0 0C14.3 -15.7 31.5 -8.6 34.3 0C31.5 8.6 14.3 15.7 0 0Z" fill="#4f9d2d" transform="translate(339.5 330.4) rotate(-138)"/><path d="M0 0C14.3 -15.7 31.5 -8.6 34.3 0C31.5 8.6 14.3 15.7 0 0Z" fill="#7bb33a" transform="translate(339.5 330.4) rotate(-106)"/><path d="M0 0C14.3 -15.7 31.5 -8.6 34.3 0C31.5 8.6 14.3 15.7 0 0Z" fill="#a3cf5a" transform="translate(339.5 330.4) rotate(-74)"/><path d="M0 0C14.3 -15.7 31.5 -8.6 34.3 0C31.5 8.6 14.3 15.7 0 0Z" fill="#2f7d4a" transform="translate(339.5 330.4) rotate(-42)"/><path d="M0 0C14.3 -15.7 31.5 -8.6 34.3 0C31.5 8.6 14.3 15.7 0 0Z" fill="#4f9d2d" transform="translate(339.5 330.4) rotate(-10)"/><rect x="400" y="325.4" width="60.5" height="8" fill="#0f6b6f"/><path d="M438.5 330.4h44.0l-6 30.800000000000004h-32.0z" fill="#0f6b6f"/><path d="M0 0C14.3 -15.7 31.5 -8.6 34.3 0C31.5 8.6 14.3 15.7 0 0Z" fill="#2f7d4a" transform="translate(460.5 330.4) rotate(-170)"/><path d="M0 0C14.3 -15.7 31.5 -8.6 34.3 0C31.5 8.6 14.3 15.7 0 0Z" fill="#4f9d2d" transform="translate(460.5 330.4) rotate(-138)"/><path d="M0 0C14.3 -15.7 31.5 -8.6 34.3 0C31.5 8.6 14.3 15.7 0 0Z" fill="#7bb33a" transform="translate(460.5 330.4) rotate(-106)"/><path d="M0 0C14.3 -15.7 31.5 -8.6 34.3 0C31.5 8.6 14.3 15.7 0 0Z" fill="#a3cf5a" transform="translate(460.5 330.4) rotate(-74)"/><path d="M0 0C14.3 -15.7 31.5 -8.6 34.3 0C31.5 8.6 14.3 15.7 0 0Z" fill="#2f7d4a" transform="translate(460.5 330.4) rotate(-42)"/><path d="M0 0C14.3 -15.7 31.5 -8.6 34.3 0C31.5 8.6 14.3 15.7 0 0Z" fill="#4f9d2d" transform="translate(460.5 330.4) rotate(-10)"/><rect x="339.5" y="384.2" width="60.5" height="8" fill="#0f6b6f"/><path d="M317.5 389.2h44.0l-6 30.800000000000004h-32.0z" fill="#0f6b6f"/><path d="M0 0C14.3 -15.7 31.5 -8.6 34.3 0C31.5 8.6 14.3 15.7 0 0Z" fill="#2f7d4a" transform="translate(339.5 389.2) rotate(-170)"/><path d="M0 0C14.3 -15.7 31.5 -8.6 34.3 0C31.5 8.6 14.3 15.7 0 0Z" fill="#4f9d2d" transform="translate(339.5 389.2) rotate(-138)"/><path d="M0 0C14.3 -15.7 31.5 -8.6 34.3 0C31.5 8.6 14.3 15.7 0 0Z" fill="#7bb33a" transform="translate(339.5 389.2) rotate(-106)"/><path d="M0 0C14.3 -15.7 31.5 -8.6 34.3 0C31.5 8.6 14.3 15.7 0 0Z" fill="#a3cf5a" transform="translate(339.5 389.2) rotate(-74)"/><path d="M0 0C14.3 -15.7 31.5 -8.6 34.3 0C31.5 8.6 14.3 15.7 0 0Z" fill="#2f7d4a" transform="translate(339.5 389.2) rotate(-42)"/><path d="M0 0C14.3 -15.7 31.5 -8.6 34.3 0C31.5 8.6 14.3 15.7 0 0Z" fill="#4f9d2d" transform="translate(339.5 389.2) rotate(-10)"/><rect x="400" y="384.2" width="60.5" height="8" fill="#0f6b6f"/><path d="M438.5 389.2h44.0l-6 30.800000000000004h-32.0z" fill="#0f6b6f"/><path d="M0 0C14.3 -15.7 31.5 -8.6 34.3 0C31.5 8.6 14.3 15.7 0 0Z" fill="#2f7d4a" transform="translate(460.5 389.2) rotate(-170)"/><path d="M0 0C14.3 -15.7 31.5 -8.6 34.3 0C31.5 8.6 14.3 15.7 0 0Z" fill="#4f9d2d" transform="translate(460.5 389.2) rotate(-138)"/><path d="M0 0C14.3 -15.7 31.5 -8.6 34.3 0C31.5 8.6 14.3 15.7 0 0Z" fill="#7bb33a" transform="translate(460.5 389.2) rotate(-106)"/><path d="M0 0C14.3 -15.7 31.5 -8.6 34.3 0C31.5 8.6 14.3 15.7 0 0Z" fill="#a3cf5a" transform="translate(460.5 389.2) rotate(-74)"/><path d="M0 0C14.3 -15.7 31.5 -8.6 34.3 0C31.5 8.6 14.3 15.7 0 0Z" fill="#2f7d4a" transform="translate(460.5 389.2) rotate(-42)"/><path d="M0 0C14.3 -15.7 31.5 -8.6 34.3 0C31.5 8.6 14.3 15.7 0 0Z" fill="#4f9d2d" transform="translate(460.5 389.2) rotate(-10)"/><rect x="339.5" y="443.0" width="60.5" height="8" fill="#0f6b6f"/><path d="M317.5 448.0h44.0l-6 30.800000000000004h-32.0z" fill="#0f6b6f"/><path d="M0 0C14.3 -15.7 31.5 -8.6 34.3 0C31.5 8.6 14.3 15.7 0 0Z" fill="#2f7d4a" transform="translate(339.5 448.0) rotate(-170)"/><path d="M0 0C14.3 -15.7 31.5 -8.6 34.3 0C31.5 8.6 14.3 15.7 0 0Z" fill="#4f9d2d" transform="translate(339.5 448.0) rotate(-138)"/><path d="M0 0C14.3 -15.7 31.5 -8.6 34.3 0C31.5 8.6 14.3 15.7 0 0Z" fill="#7bb33a" transform="translate(339.5 448.0) rotate(-106)"/><path d="M0 0C14.3 -15.7 31.5 -8.6 34.3 0C31.5 8.6 14.3 15.7 0 0Z" fill="#a3cf5a" transform="translate(339.5 448.0) rotate(-74)"/><path d="M0 0C14.3 -15.7 31.5 -8.6 34.3 0C31.5 8.6 14.3 15.7 0 0Z" fill="#2f7d4a" transform="translate(339.5 448.0) rotate(-42)"/><path d="M0 0C14.3 -15.7 31.5 -8.6 34.3 0C31.5 8.6 14.3 15.7 0 0Z" fill="#4f9d2d" transform="translate(339.5 448.0) rotate(-10)"/><rect x="400" y="443.0" width="60.5" height="8" fill="#0f6b6f"/><path d="M438.5 448.0h44.0l-6 30.800000000000004h-32.0z" fill="#0f6b6f"/><path d="M0 0C14.3 -15.7 31.5 -8.6 34.3 0C31.5 8.6 14.3 15.7 0 0Z" fill="#2f7d4a" transform="translate(460.5 448.0) rotate(-170)"/><path d="M0 0C14.3 -15.7 31.5 -8.6 34.3 0C31.5 8.6 14.3 15.7 0 0Z" fill="#4f9d2d" transform="translate(460.5 448.0) rotate(-138)"/><path d="M0 0C14.3 -15.7 31.5 -8.6 34.3 0C31.5 8.6 14.3 15.7 0 0Z" fill="#7bb33a" transform="translate(460.5 448.0) rotate(-106)"/><path d="M0 0C14.3 -15.7 31.5 -8.6 34.3 0C31.5 8.6 14.3 15.7 0 0Z" fill="#a3cf5a" transform="translate(460.5 448.0) rotate(-74)"/><path d="M0 0C14.3 -15.7 31.5 -8.6 34.3 0C31.5 8.6 14.3 15.7 0 0Z" fill="#2f7d4a" transform="translate(460.5 448.0) rotate(-42)"/><path d="M0 0C14.3 -15.7 31.5 -8.6 34.3 0C31.5 8.6 14.3 15.7 0 0Z" fill="#4f9d2d" transform="translate(460.5 448.0) rotate(-10)"/><rect x="0" y="430" width="230" height="8" fill="#8aa7a3"/><rect x="20" y="430" width="6" height="90" fill="#8aa7a3"/><rect x="80" y="430" width="6" height="90" fill="#8aa7a3"/><rect x="140" y="430" width="6" height="90" fill="#8aa7a3"/><rect x="200" y="430" width="6" height="90" fill="#8aa7a3"/><rect x="570" y="430" width="230" height="8" fill="#8aa7a3"/><rect x="590" y="430" width="6" height="90" fill="#8aa7a3"/><rect x="650" y="430" width="6" height="90" fill="#8aa7a3"/><rect x="710" y="430" width="6" height="90" fill="#8aa7a3"/><rect x="770" y="430" width="6" height="90" fill="#8aa7a3"/></svg>