<svg xmlns="http://www.w3.org/2000/svg" viewBox="0 0 800 600" xmlns:c2pa="http://c2pa.org/manifest"><metadata><c2pa:manifest>AAAWgmp1bWIAAAAeanVtZGMycGEAEQAQgAAAqgA4m3EDYzJwYQAAABZcanVtYgAAAEdqdW1kYzJtYQARABCAAACqADibcQN1cm46YzJwYTozYTUyMTQ4YS02NWZkLTQxNTgtYmJjZC1jY2M0MTVlOGExNTkAAAADl2p1bWIAAAApanVtZGMyYXMAEQAQgAAAqgA4m3EDYzJwYS5hc3NlcnRpb25zAAAAALxqdW1iAAAARGp1bWRjYm9yABEAEIAAAKoAOJtxE2MycGEuaW5ncmVkaWVudC52MwAAAAAYYzJzaIuWB8FXHDvraGFKjR4z6MkAAABwY2JvcqNpZGM6Zm9ybWF0bWltYWdlL3N2Zyt4bWxqaW5zdGFuY2VJRHgseG1wOmlpZDoyYWRhNzljNS0zY2VkLTQ2MmYtOGMyOC04ZmRhMWViNDUzNmVscmVsYXRpb25zaGlwaHBhcmVudE9mAAAB4mp1bWIAAABBanVtZGNib3IAEQAQgAAAqgA4m3ETYzJwYS5hY3Rpb25zLnYyAAAAABhjMnNoigfKwmSRGt3ssC5Zzm6KewAAAZljYm9yomdhY3Rpb25zgqJmYWN0aW9ua2MycGEub3BlbmVkanBhcmFtZXRlcnOha2luZ3JlZGllbnRzgaJjdXJseC1zZWxmI2p1bWJmPWMycGEuYXNzZXJ0aW9ucy9jMnBhLmluZ3JlZGllbnQudjNkaGFzaFggDApvCosy0zDecOz50VOxAontIWgc73Jt9AANLPMSPqGkZmFjdGlvbngdY29tLmFudGhyb3BpYy5jbGF1ZGUucHJvdmlkZWRqcGFyYW1ldGVyc6F4H2NvbS5hbnRocm9waWMub3JpZ2luLWNvbmZpZGVuY2VndW5rbm93bmtkZXNjcmlwdGlvbnhmQ2xhdWRlIHByb3ZpZGVkIHRoaXMgZmlsZSBhdCB0aGUgcmVxdWVzdCBvZiBhIHVzZXIgYW5kIG1heSBoYXZlIGNyZWF0ZWQgb3IgbW9kaWZpZWQgdGhlIGZpbGUgY29udGVudHMubXNvZnR3YXJlQWdlbnShZG5hbWVmQ2xhdWRlcmFsbEFjdGlvbnNJbmNsdWRlZPUAAADIanVtYgAAAEBqdW1kY2JvcgARABCAAACqADibcRNjMnBhLmhhc2guZGF0YQAAAAAYYzJzaGGm6RJfmCiUcjduuqBt7ukAAACAY2JvcqVjYWxnZnNoYTI1NmNwYWRNAAAAAAAAAAAAAAAAAGRoYXNoWCAb6Vsp7w/hSuu9IeRiSl/NxB/w3duewJ2muc+FGfFoMGRuYW1lbmp1bWJmIG1hbmlmZXN0amV4Y2x1c2lvbnOBomVzdGFydBh9Zmxlbmd0aBkeBAAAAj5qdW1iAAAAJ2p1bWRjMmNsABEAEIAAAKoAOJtxA2MycGEuY2xhaW0udjIAAAACD2Nib3KlY2FsZ2ZzaGEyNTZpc2lnbmF0dXJleE1zZWxmI2p1bWJmPS9jMnBhL3VybjpjMnBhOjNhNTIxNDhhLTY1ZmQtNDE1OC1iYmNkLWNjYzQxNWU4YTE1OS9jMnBhLnNpZ25hdHVyZWppbnN0YW5jZUlEeCx4bXA6aWlkOjE2ZDEyNmQ4LWMwM2MtNDgwYy04MjZhLWNlYmU5MzFkNWFmN3JjcmVhdGVkX2Fzc2VydGlvbnODomN1cmx4LXNlbGYjanVtYmY9YzJwYS5hc3NlcnRpb25zL2MycGEuaW5ncmVkaWVudC52M2RoYXNoWCAMCm8KizLTMN5w7PnRU7ECie0haBzvcm30AA0s8xI+oaJjdXJseCpzZWxmI2p1bWJmPWMycGEuYXNzZXJ0aW9ucy9jMnBhLmFjdGlvbnMudjJkaGFzaFggx3oKkLqFFWnTUZrK1hXmfoezgoYsGFa6Cqe36fr4K/SiY3VybHgpc2VsZiNqdW1iZj1jMnBhLmFzc2VydGlvbnMvYzJwYS5oYXNoLmRhdGFkaGFzaFggeVZOrYQkqvBCHiyItfxYRUBDbezLVeRVmNI9xkO/44V0Y2xhaW1fZ2VuZXJhdG9yX2luZm+jZG5hbWVvQW50aHJvcGljIEZpbGVzZ3ZlcnNpb25lMS4wLjBrc3BlY1ZlcnNpb25lMi40LjAAABA4anVtYgAAAChqdW1kYzJjcwARABCAAACqADibcQNjMnBhLnNpZ25hdHVyZQAAABAIY2JvctKEWQISogEmGCFZAgowggIGMIIBjaADAgECAhRA5aAK7sI50L64g/oGQgU9Z1UTADAKBggqhkjOPQQDAzBJMRcwFQYDVQQKEw5BbnRocm9waWMsIFBCQzEuMCwGA1UEAxMlQW50aHJvcGljIENvbnRlbnQgQ3JlZGVudGlhbHMgUm9vdCBDQTAeFw0yNjA4MDcxODQzNTZaFw0yODA4MDYxOTQzNTZaMEQxFzAVBgNVBAoTDkFudGhyb3BpYywgUEJDMSkwJwYDVQQDEyBBbnRocm9waWMgQ2xhdWRlIENvbnRlbnQgU2lnbmluZzBZMBMGByqGSM49AgEGCCqGSM49AwEHA0IABJh6CmvLUBgFFNU0vUKlOVtE6djd17L5SuwX0LemFisBM3dkd/3cyjxFA3Qo5S46fX0/ihY0VZ7mfb9KF703t5OjWDBWMA4GA1UdDwEB/wQEAwIHgDAVBgNVHSUEDjAMBgorBgEEAYPoXgIBMAwGA1UdEwEB/wQCMAAwHwYDVR0jBBgwFoAUzlHiBIFOZFsj+OPEz5o+nMHXXMIwCgYIKoZIzj0EAwMDZwAwZAIwMXMdFJ4BetLLVY7ORuE9noqbbAZOZn/aArXyTwFAZfKrPzxF2vPoJNf1+UCdg1XGAjBwX1zd9WGqYkqmL5SFqw1QySjr1zJfpJM9+1rdDwSPLMOPOjKuiXjoU/pUUeG9RwmhY3BhZFkNngAAAAAAAAAAAAAAAAAAAAAAAAAAAAAAAAAAAAAAAAAAAAAAAAAAAAAAAAAAAAAAAAAAAAAAAAAAAAAAAAAAAAAAAAAAAAAAAAAAAAAAAAAAAAAAAAAAAAAAAAAAAAAAAAAAAAAAAAAAAAAAAAAAAAAAAAAAAAAAAAAAAAAAAAAAAAAAAAAAAAAAAAAAAAAAAAAAAAAAAAAAAAAAAAAAAAAAAAAAAAAAAAAAAAAAAAAAAAAAAAAAAAAAAAAAAAAAAAAAAAAAAAAAAAAAAAAAAAAAAAAAAAAAAAAAAAAAAAAAAAAAAAAAAAAAAAAAAAAAAAAAAAAAAAAAAAAAAAAAAAAAAAAAAAAAAAAAAAAAAAAAAAAAAAAAAAAAAAAAAAAAAAAAAAAAAAAAAAAAAAAAAAAAAAAAAAAAAAAAAAAAAAAAAAAAAAAAAAAAAAAAAAAAAAAAAAAAAAAAAAAAAAAAAAAAAAAAAAAAAAAAAAAAAAAAAAAAAAAAAAAAAAAAAAAAAAAAAAAAAAAAAAAAAAAAAAAAAAAAAAAAAAAAAAAAAAAAAAAAAAAAAAAAAAAAAAAAAAAAAAAAAAAAAAAAAAAAAAAAAAAAAAAAAAAAAAAAAAAAAAAAAAAAAAAAAAAAAAAAAAAAAAAAAAAAAAAAAAAAAAAAAAAAAAAAAAAAAAAAAAAAAAAAAAAAAAAAAAAAAAAAAAAAAAAAAAAAAAAAAAAAAAAAAAAAAAAAAAAAAAAAAAAAAAAAAAAAAAAAAAAAAAAAAAAAAAAAAAAAAAAAAAAAAAAAAAAAAAAAAAAAAAAAAAAAAAAAAAAAAAAAAAAAAAAAAAAAAAAAAAAAAAAAAAAAAAAAAAAAAAAAAAAAAAAAAAAAAAAAAAAAAAAAAAAAAAAAAAAAAAAAAAAAAAAAAAAAAAAAAAAAAAAAAAAAAAAAAAAAAAAAAAAAAAAAAAAAAAAAAAAAAAAAAAAAAAAAAAAAAAAAAAAAAAAAAAAAAAAAAAAAAAAAAAAAAAAAAAAAAAAAAAAAAAAAAAAAAAAAAAAAAAAAAAAAAAAAAAAAAAAAAAAAAAAAAAAAAAAAAAAAAAAAAAAAAAAAAAAAAAAAAAAAAAAAAAAAAAAAAAAAAAAAAAAAAAAAAAAAAAAAAAAAAAAAAAAAAAAAAAAAAAAAAAAAAAAAAAAAAAAAAAAAAAAAAAAAAAAAAAAAAAAAAAAAAAAAAAAAAAAAAAAAAAAAAAAAAAAAAAAAAAAAAAAAAAAAAAAAAAAAAAAAAAAAAAAAAAAAAAAAAAAAAAAAAAAAAAAAAAAAAAAAAAAAAAAAAAAAAAAAAAAAAAAAAAAAAAAAAAAAAAAAAAAAAAAAAAAAAAAAAAAAAAAAAAAAAAAAAAAAAAAAAAAAAAAAAAAAAAAAAAAAAAAAAAAAAAAAAAAAAAAAAAAAAAAAAAAAAAAAAAAAAAAAAAAAAAAAAAAAAAAAAAAAAAAAAAAAAAAAAAAAAAAAAAAAAAAAAAAAAAAAAAAAAAAAAAAAAAAAAAAAAAAAAAAAAAAAAAAAAAAAAAAAAAAAAAAAAAAAAAAAAAAAAAAAAAAAAAAAAAAAAAAAAAAAAAAAAAAAAAAAAAAAAAAAAAAAAAAAAAAAAAAAAAAAAAAAAAAAAAAAAAAAAAAAAAAAAAAAAAAAAAAAAAAAAAAAAAAAAAAAAAAAAAAAAAAAAAAAAAAAAAAAAAAAAAAAAAAAAAAAAAAAAAAAAAAAAAAAAAAAAAAAAAAAAAAAAAAAAAAAAAAAAAAAAAAAAAAAAAAAAAAAAAAAAAAAAAAAAAAAAAAAAAAAAAAAAAAAAAAAAAAAAAAAAAAAAAAAAAAAAAAAAAAAAAAAAAAAAAAAAAAAAAAAAAAAAAAAAAAAAAAAAAAAAAAAAAAAAAAAAAAAAAAAAAAAAAAAAAAAAAAAAAAAAAAAAAAAAAAAAAAAAAAAAAAAAAAAAAAAAAAAAAAAAAAAAAAAAAAAAAAAAAAAAAAAAAAAAAAAAAAAAAAAAAAAAAAAAAAAAAAAAAAAAAAAAAAAAAAAAAAAAAAAAAAAAAAAAAAAAAAAAAAAAAAAAAAAAAAAAAAAAAAAAAAAAAAAAAAAAAAAAAAAAAAAAAAAAAAAAAAAAAAAAAAAAAAAAAAAAAAAAAAAAAAAAAAAAAAAAAAAAAAAAAAAAAAAAAAAAAAAAAAAAAAAAAAAAAAAAAAAAAAAAAAAAAAAAAAAAAAAAAAAAAAAAAAAAAAAAAAAAAAAAAAAAAAAAAAAAAAAAAAAAAAAAAAAAAAAAAAAAAAAAAAAAAAAAAAAAAAAAAAAAAAAAAAAAAAAAAAAAAAAAAAAAAAAAAAAAAAAAAAAAAAAAAAAAAAAAAAAAAAAAAAAAAAAAAAAAAAAAAAAAAAAAAAAAAAAAAAAAAAAAAAAAAAAAAAAAAAAAAAAAAAAAAAAAAAAAAAAAAAAAAAAAAAAAAAAAAAAAAAAAAAAAAAAAAAAAAAAAAAAAAAAAAAAAAAAAAAAAAAAAAAAAAAAAAAAAAAAAAAAAAAAAAAAAAAAAAAAAAAAAAAAAAAAAAAAAAAAAAAAAAAAAAAAAAAAAAAAAAAAAAAAAAAAAAAAAAAAAAAAAAAAAAAAAAAAAAAAAAAAAAAAAAAAAAAAAAAAAAAAAAAAAAAAAAAAAAAAAAAAAAAAAAAAAAAAAAAAAAAAAAAAAAAAAAAAAAAAAAAAAAAAAAAAAAAAAAAAAAAAAAAAAAAAAAAAAAAAAAAAAAAAAAAAAAAAAAAAAAAAAAAAAAAAAAAAAAAAAAAAAAAAAAAAAAAAAAAAAAAAAAAAAAAAAAAAAAAAAAAAAAAAAAAAAAAAAAAAAAAAAAAAAAAAAAAAAAAAAAAAAAAAAAAAAAAAAAAAAAAAAAAAAAAAAAAAAAAAAAAAAAAAAAAAAAAAAAAAAAAAAAAAAAAAAAAAAAAAAAAAAAAAAAAAAAAAAAAAAAAAAAAAAAAAAAAAAAAAAAAAAAAAAAAAAAAAAAAAAAAAAAAAAAAAAAAAAAAAAAAAAAAAAAAAAAAAAAAAAAAAAAAAAAAAAAAAAAAAAAAAAAAAAAAAAAAAAAAAAAAAAAAAAAAAAAAAAAAAAAAAAAAAAAAAAAAAAAAAAAAAAAAAAAAAAAAAAAAAAAAAAAAAAAAAAAAAAAAAAAAAAAAAAAAAAAAAAAAAAAAAAAAAAAAAAAAAAAAAAAAAAAAAAAAAAAAAAAAAAAAAAAAAAAAAAAAAAAAAAAAAAAAAAAAAAAAAAAAAAAAAAAAAAAAAAAAAAAAAAAAAAAAAAAAAAAAAAAAAAAAAAAAAAAAAAAAAAAAAAAAAAAAAAAAAAAAAAAAAAAAAAAAAAAAAAAAAAAAAAAAAAAAAAAAAAAAAAAAAAAAAAAAAAAAAAAAAAAAAAAAAAAAAAAAAAAAAAAAAAAAAAAAAAAAAAAAAAAAAAAAAAAAAAAAAAAAAAAAAAAAAAAAAAAAAAAAAAAAAAAAAAAAAAAAAAAAAAAAAAAAAAAAAAAAAAAAAAAAAAAAAAAAAAAAAAAAAAAAAAAAAAAAAAAAAAAAAAAAAAAAAAAAAAAAAAAAAAAAAAAAAAAAAAAAAAAAAAAAAAAAAAAAAAAAAAAAAAAAAAAAAAAAAAAAAAAAAAAAAAAAAAAAAAAAAAAAAAAAAAAAAAAAAAAAAAAAAAAAAAAAAAAAAAAAAAAAAAAAAAAAAAAAAAAAAAAAAAAAAAAAAAAAAAAAAAAAAAAAAAAAAAAAAAAAAAAAAAAAAAAAAAAAAAAAAAAAAAAAAAAAAAAAAAAAAAAAAAAAAAAAAAAAAAAAAAAAAAAAAAAAAAAAAAAAAAAAAAAAAAAAAAAAAAAAAAAAAAAAAAAAAAAAAAAAAAAAAAAAAAAAAAAAAAAAAAAAAAAAAAAAAAAAAAAAAAAAAAAAAAAAAAAAAAAAAAAAAAAAAAAAAAAAAAAAAAAAAAAAAAAAAAAAAAAAAAAAAAAAAAAAAAAAAAAAAAAAAAAAAAAAAAAAAAAAAAAAAAAAAAAAAAAAAAAAAAAAAAAAAAAAAAAAAAAAAAAAAAAAAAAAAAAAAAAAAAAAAAAAAAAAAAAAAAAAAAAAAAAAAAAAAAAAAAAAAAAAAAAAAAAAAAAAAAAAAAAAAAAAAAAAAAAAAAAAAAAAAAAAAAAAAAAAAAAAAAAAAAAAAAAAAAAAAAAAAAAAAAAAAAAAAAAAAAAAAAAAAAAAAAAAAAAAAAAAAAAAAAAAAAAAAAAAAAAAAAAAAAAAAAAAAAAAAAAAAAAAAAAAAAAAAAAAAAAAAAAAAAAAAAAAAAAAAAAAAAAAAAAAAAAAAAAAAAAAAAAAAAAAAAAAAAAAAAAAAAAAAAAAAAAAAAAAAAAAAAAAAAAAAAAAAAAAAAAAAAAAAAAAAAAAAAAAAAAAAAAAAAAAAAAAAAAAAAAAAAAAAAAAAAAAAAAAAAAAAAAAAAAAAAAAAAAAAAAAAAAAAAAAAAAAAAAAAAAAAAAAAAAAAAAAAAAAAAAAAAAAAAAAAAAAAAAAAAAAAAAAAAAAAAAAAAAAAAAAAAAAAAAAAAAAAAAAAAAAAAAAAAAAAAAAAAAAAAAAAAAAAAAAAAAAAAAAAAAAAAAAAAAAAAAAAAAAAAAAAAAAAAPZYQG0d207qch9m77GjkTOBd1cNq37Np80CuYEXnDNRaIcwvipc0LEaQEU6I7q78V9+qenCPb9oiazkhuNW2RrErLE=</c2pa:manifest></metadata><defs><linearGradient id="sky" x1="0" y1="0" x2="0" y2="1"><stop offset="0" stop-color="#e3f3f0"/><stop offset="1" stop-color="#f3f8f6"/></linearGradient></defs><rect width="800" height="600" fill="url(#sky)"/><rect y="500" width="800" height="100" fill="#cfe0dd"/><rect x="260" y="330" width="280" height="190" rx="22" fill="#cfeef2" stroke="#0f6b6f" stroke-width="5"/><rect x="266" y="360" width="268" height="154" rx="18" fill="#9fd8e2"/><path d="M310 340 C280 400 340 440 300 500" stroke="#f5efe0" stroke-width="5" fill="none" stroke-linecap="round"/><path d="M342 340 C312 400 372 440 332 500" stroke="#f5efe0" stroke-width="5" fill="none" stroke-linecap="round"/><path d="M374 340 C344 400 404 440 364 500" stroke="#f5efe0" stroke-width="5" fill="none" stroke-linecap="round"/><path d="M406 340 C376 400 436 440 396 500" stroke="#f5efe0" stroke-width="5" fill="none" stroke-linecap="round"/><path d="M438 340 C408 400 468 440 428 500" stroke="#f5efe0" stroke-width="5" fill="none" stroke-linecap="round"/><path d="M470 340 C440 400 500 440 460 500" stroke="#f5efe0" stroke-width="5" fill="none" stroke-linecap="round"/><rect x="385" y="250" width="30" height="90" fill="#4f9d2d"/><path d="M0 0C35.0 -38.5 77.0 -21.0 84.0 0C77.0 21.0 35.0 38.5 0 0Z" fill="#2f7d4a" transform="translate(400 262) rotate(-170)"/><path d="M0 0C35.0 -38.5 77.0 -21.0 84.0 0C77.0 21.0 35.0 38.5 0 0Z" fill="#4f9d2d" transform="translate(400 262) rotate(-150)"/><path d="M0 0C35.0 -38.5 77.0 -21.0 84.0 0C77.0 21.0 35.0 38.5 0 0Z" fill="#7bb33a" transform="translate(400 262) rotate(-130)"/><path d="M0 0C35.0 -38.5 77.0 -21.0 84.0 0C77.0 21.0 35.0 38.5 0 0Z" fill="#a3cf5a" transform="translate(400 262) rotate(-110)"/><path d="M0 0C35.0 -38.5 77.0 -21.0 84.0 0C77.0 21.0 35.0 38.5 0 0Z" fill="#2f7d4a" transform="translate(400 262) rotate(-90)"/><path d="M0 0C35.0 -38.5 77.0 -21.0 84.0 0C77.0 21.0 35.0 38.5 0 0Z" fill="#4f9d2d" transform="translate(400 262) rotate(-70)"/><path d="M0 0C35.0 -38.5 77.0 -21.0 84.0 0C77.0 21.0 35.0 38.5 0 0Z" fill="#7bb33a" transform="translate(400 262) rotate(-50)"/><path d="M0 0C35.0 -38.5 77.0 -21.0 84.0 0C77.0 21.0 35.0 38.5 0 0Z" fill="#a3cf5a" transform="translate(400 262) rotate(-30)"/><path d="M0 0C35.0 -38.5 77.0 -21.0 84.0 0C77.0 21.0 35.0 38.5 0 0Z" fill="#2f7d4a" transform="translate(400 262) rotate(-10)"/><circle cx="439" cy="407" r="4" fill="#7bb33a" opacity=".8"/><circle cx="469" cy="420" r="4" fill="#7bb33a" opacity=".8"/><circle cx="483" cy="463" r="4" fill="#7bb33a" opacity=".8"/><circle cx="495" cy="469" r="4" fill="#7bb33a" opacity=".8"/><circle cx="446" cy="493" r="4" fill="#7bb33a" opacity=".8"/><circle cx="415" cy="378" r="4" fill="#7bb33a" opacity=".8"/><circle cx="495" cy="434" r="4" fill="#7bb33a" opacity=".8"/><circle cx="478" cy="495" r="4" fill="#7bb33a" opacity=".8"/><circle cx="343" cy="458" r="4" fill="#7bb33a" opacity=".8"/><circle cx="293" cy="490" r="4" fill="#7bb33a" opacity=".8"/><circle cx="320" cy="389" r="4" fill="#7bb33a" opacity=".8"/><circle cx="375" cy="435" r="4" fill="#7bb33a" opacity=".8"/><circle cx="502" cy="406" r="4" fill="#7bb33a" opacity=".8"/><circle cx="377" cy="444" r="4" fill="#7bb33a" opacity=".8"/><circle cx="306" cy="448" r="4" fill="#7bb33a" opacity=".8"/><circle cx="343" cy="376" r="4" fill="#7bb33a" opacity=".8"/><circle cx="467" cy="402" r="4" fill="#7bb33a" opacity=".8"/><circle cx="384" cy="410" r="4" fill="#7bb33a" opacity=".8"/><circle cx="326" cy="492" r="4" fill="#7bb33a" opacity=".8"/><circle cx="502" cy="473" r="4" fill="#7bb33a" opacity=".8"/><circle cx="379" cy="395" r="4" fill="#7bb33a" opacity=".8"/><circle cx="475" cy="477" r="4" fill="#7bb33a" opacity=".8"/><circle cx="298" cy="392" r="4" fill="#7bb33a" opacity=".8"/><circle cx="438" cy="454" r="4" fill="#7bb33a" opacity=".8"/><circle cx="393" cy="391" r="4" fill="#7bb33a" opacity=".8"/><circle cx="313" cy="375" r="4" fill="#7bb33a" opacity=".8"/><text x="560" y="250" font-family="Segoe UI,Arial,sans-serif" font-size="22" font-weight="600" fill="#10282c">Leaves</text><text x="560" y="420" font-family="Segoe UI,Arial,sans-serif" font-size="22" font-weight="600" fill="#10282c">Roots in</text><text x="560" y="446" font-family="Segoe UI,Arial,sans-serif" font-size="22" font-weight="600" fill="#10282c">nutrient water</text><text x="20" y="470" font-family="Segoe UI,Arial,sans-serif" font-size="22" font-weight="600" fill="#10282c">No soil</text><path d="M550 244 L440 266 M550 416 L500 420" stroke="#0f6b6f" stroke-width="3" fill="none"/></svg>